<?xml version="1.0" encoding="UTF-8" standalone="no"?>
<!DOCTYPE svg PUBLIC "-//W3C//DTD SVG 1.1//EN"
 "http://www.w3.org/Graphics/SVG/1.1/DTD/svg11.dtd">
<!-- Generated by graphviz version 2.28.0 (20121205.0059)
 -->
<!-- Title: models_diagram Pages: 1 -->
<svg width="2690pt" height="454pt"
 viewBox="0.00 0.00 2690.00 454.00" xmlns="http://www.w3.org/2000/svg" xmlns:xlink="http://www.w3.org/1999/xlink">
<g id="graph1" class="graph" transform="scale(1 1) rotate(0) translate(4 450)">
<title>models_diagram</title>
<polygon fill="white" stroke="white" points="-4,5 -4,-450 2687,-450 2687,5 -4,5"/>
<!-- _diagram_info -->
<g id="node1" class="node"><title>_diagram_info</title>
<text text-anchor="start" x="7.31226" y="-429" font-family="Times,serif" font-size="13.00">Models diagram</text>
<text text-anchor="start" x="7.31226" y="-413.4" font-family="Times,serif" font-size="13.00">Date: Dec 05 2012 &#45; 03:12</text>
<text text-anchor="start" x="7.31226" y="-397.8" font-family="Times,serif" font-size="13.00">Migration version: 20121205000048</text>
<text text-anchor="start" x="7.31226" y="-382.2" font-family="Times,serif" font-size="13.00">Generated by RailRoady 1.0.7</text>
<text text-anchor="start" x="7.31226" y="-366.6" font-family="Times,serif" font-size="13.00">http://railroady.prestonlee.com</text>
</g>
<!-- Ability -->
<g id="node2" class="node"><title>Ability</title>
<polygon fill="none" stroke="black" points="280.255,-421 225.745,-421 225.745,-385 280.255,-385 280.255,-421"/>
<text text-anchor="middle" x="253" y="-397.4" font-family="Times,serif" font-size="14.00">Ability</text>
</g>
<!-- Artist -->
<g id="node3" class="node"><title>Artist</title>
<ellipse fill="none" stroke="black" cx="647" cy="-403" rx="33.0501" ry="18"/>
<text text-anchor="middle" x="647" y="-397.4" font-family="Times,serif" font-size="14.00">Artist</text>
</g>
<!-- Event -->
<g id="node6" class="node"><title>Event</title>
<ellipse fill="none" stroke="black" cx="1137" cy="-288" rx="33.3419" ry="18"/>
<text text-anchor="middle" x="1137" y="-282.4" font-family="Times,serif" font-size="14.00">Event</text>
</g>
<!-- Artist&#45;&gt;Event -->
<g id="edge8" class="edge"><title>Artist&#45;&gt;Event</title>
<path fill="none" stroke="#9d64b2" d="M686.746,-392.834C778.648,-371.64 1005.01,-319.439 1097.08,-298.206"/>
<polygon fill="#9d64b2" stroke="#9d64b2" points="686.658,-392.854 675.903,-390.717 681.786,-393.978 676.914,-395.101 676.914,-395.101 676.914,-395.101 681.786,-393.978 677.925,-399.486 686.658,-392.854 686.658,-392.854"/>
<polygon fill="#9d64b2" stroke="#9d64b2" points="1097.11,-298.199 1107.87,-300.337 1101.98,-297.075 1106.85,-295.952 1106.85,-295.952 1106.85,-295.952 1101.98,-297.075 1105.84,-291.567 1097.11,-298.199 1097.11,-298.199"/>
</g>
<!-- Image -->
<g id="node10" class="node"><title>Image</title>
<ellipse fill="none" stroke="black" cx="461" cy="-108" rx="35.2475" ry="18"/>
<text text-anchor="middle" x="461" y="-102.4" font-family="Times,serif" font-size="14.00">Image</text>
</g>
<!-- Artist&#45;&gt;Image -->
<g id="edge6" class="edge"><title>Artist&#45;&gt;Image</title>
<path fill="none" stroke="#690b7e" d="M605.255,-396.007C489.003,-379.081 167.36,-330.555 126,-306 81.713,-279.707 70.2118,-264.543 53,-216 47.6531,-200.92 42.5591,-192.124 53,-180 105.789,-118.703 334.514,-145.593 413,-126 416.645,-125.09 420.403,-124.014 424.136,-122.851"/>
<polygon fill="#690b7e" stroke="#690b7e" points="605.31,-396.015 614.559,-401.905 610.258,-396.733 615.206,-397.451 615.206,-397.451 615.206,-397.451 610.258,-396.733 615.852,-392.998 605.31,-396.015 605.31,-396.015"/>
<polygon fill="#690b7e" stroke="#690b7e" points="424.37,-122.774 435.278,-123.9 429.116,-121.201 433.863,-119.628 433.863,-119.628 433.863,-119.628 429.116,-121.201 432.447,-115.357 424.37,-122.774 424.37,-122.774"/>
</g>
<!-- Visit -->
<g id="node27" class="node"><title>Visit</title>
<ellipse fill="none" stroke="black" cx="1743" cy="-198" rx="29.3645" ry="18"/>
<text text-anchor="middle" x="1743" y="-192.4" font-family="Times,serif" font-size="14.00">Visit</text>
</g>
<!-- Artist&#45;&gt;Visit -->
<g id="edge4" class="edge"><title>Artist&#45;&gt;Visit</title>
<path fill="none" stroke="#43ac75" d="M688.227,-400.643C847.764,-394.959 1424.14,-370.306 1594,-306 1607.64,-300.837 1678.02,-248.296 1716.98,-218.81"/>
<ellipse fill="none" stroke="#43ac75" cx="684.066" cy="-400.789" rx="4" ry="4"/>
<polygon fill="#43ac75" stroke="#43ac75" points="1717.27,-218.587 1727.96,-216.131 1721.26,-215.567 1725.24,-212.546 1725.24,-212.546 1725.24,-212.546 1721.26,-215.567 1722.52,-208.96 1717.27,-218.587 1717.27,-218.587"/>
</g>
<!-- Artist::Translation -->
<g id="node31" class="node"><title>Artist::Translation</title>
<ellipse fill="none" stroke="black" cx="457" cy="-288" rx="82.0664" ry="18"/>
<text text-anchor="middle" x="457" y="-282.4" font-family="Times,serif" font-size="14.00">Artist::Translation</text>
</g>
<!-- Artist&#45;&gt;Artist::Translation -->
<g id="edge2" class="edge"><title>Artist&#45;&gt;Artist::Translation</title>
<path fill="none" stroke="#a48802" d="M618.679,-385.156C585.213,-365.253 529.481,-332.107 492.987,-310.403"/>
<ellipse fill="none" stroke="#a48802" cx="622.136" cy="-387.212" rx="4.00002" ry="4.00002"/>
<polygon fill="#a48802" stroke="#a48802" points="492.743,-310.258 486.448,-301.278 488.446,-307.702 484.148,-305.146 484.148,-305.146 484.148,-305.146 488.446,-307.702 481.848,-309.014 492.743,-310.258 492.743,-310.258"/>
<text text-anchor="middle" x="573.272" y="-327.4" font-family="Times,serif" font-size="14.00">translations</text>
</g>
<!-- Authentication -->
<g id="node4" class="node"><title>Authentication</title>
<ellipse fill="none" stroke="black" cx="442" cy="-198" rx="68.14" ry="18"/>
<text text-anchor="middle" x="442" y="-192.4" font-family="Times,serif" font-size="14.00">Authentication</text>
</g>
<!-- Budgetarea -->
<g id="node5" class="node"><title>Budgetarea</title>
<ellipse fill="none" stroke="black" cx="2241" cy="-403" rx="55.0101" ry="18"/>
<text text-anchor="middle" x="2241" y="-397.4" font-family="Times,serif" font-size="14.00">Budgetarea</text>
</g>
<!-- Expense -->
<g id="node8" class="node"><title>Expense</title>
<ellipse fill="none" stroke="black" cx="2190" cy="-288" rx="43.1305" ry="18"/>
<text text-anchor="middle" x="2190" y="-282.4" font-family="Times,serif" font-size="14.00">Expense</text>
</g>
<!-- Budgetarea&#45;&gt;Expense -->
<g id="edge12" class="edge"><title>Budgetarea&#45;&gt;Expense</title>
<path fill="none" stroke="#a0edc2" d="M2229.87,-377.333C2221.56,-358.931 2210.24,-333.842 2201.78,-315.104"/>
<ellipse fill="none" stroke="#a0edc2" cx="2231.61" cy="-381.192" rx="4.00002" ry="4.00002"/>
<polygon fill="#a0edc2" stroke="#a0edc2" points="2201.77,-315.068 2201.75,-304.102 2199.71,-310.511 2197.65,-305.954 2197.65,-305.954 2197.65,-305.954 2199.71,-310.511 2193.55,-307.805 2201.77,-315.068 2201.77,-315.068"/>
</g>
<!-- Income -->
<g id="node11" class="node"><title>Income</title>
<ellipse fill="none" stroke="black" cx="2292" cy="-288" rx="39.4899" ry="18"/>
<text text-anchor="middle" x="2292" y="-282.4" font-family="Times,serif" font-size="14.00">Income</text>
</g>
<!-- Budgetarea&#45;&gt;Income -->
<g id="edge10" class="edge"><title>Budgetarea&#45;&gt;Income</title>
<path fill="none" stroke="#ada62c" d="M2252.13,-377.333C2260.44,-358.931 2271.76,-333.842 2280.22,-315.104"/>
<ellipse fill="none" stroke="#ada62c" cx="2250.39" cy="-381.192" rx="4.00002" ry="4.00002"/>
<polygon fill="#ada62c" stroke="#ada62c" points="2280.23,-315.068 2288.45,-307.805 2282.29,-310.511 2284.35,-305.954 2284.35,-305.954 2284.35,-305.954 2282.29,-310.511 2280.25,-304.102 2280.23,-315.068 2280.23,-315.068"/>
</g>
<!-- EventsVisit -->
<g id="node7" class="node"><title>EventsVisit</title>
<ellipse fill="none" stroke="black" cx="1137" cy="-198" rx="55.288" ry="18"/>
<text text-anchor="middle" x="1137" y="-192.4" font-family="Times,serif" font-size="14.00">EventsVisit</text>
</g>
<!-- Event&#45;&gt;EventsVisit -->
<g id="edge20" class="edge"><title>Event&#45;&gt;EventsVisit</title>
<path fill="none" stroke="#32fe84" d="M1137,-261.462C1137,-250.397 1137,-237.428 1137,-226.184"/>
<ellipse fill="none" stroke="#32fe84" cx="1137" cy="-265.614" rx="4" ry="4"/>
<polygon fill="#32fe84" stroke="#32fe84" points="1137,-226.05 1141.5,-216.05 1137,-221.05 1137,-216.05 1137,-216.05 1137,-216.05 1137,-221.05 1132.5,-216.05 1137,-226.05 1137,-226.05"/>
</g>
<!-- Event&#45;&gt;Image -->
<g id="edge24" class="edge"><title>Event&#45;&gt;Image</title>
<path fill="none" stroke="#ed112c" d="M1095.58,-286.131C978.672,-283.032 648.722,-269.631 557,-216 547.597,-210.502 506.37,-162.738 481.099,-132.914"/>
<ellipse fill="none" stroke="#ed112c" cx="1099.62" cy="-286.235" rx="4" ry="4"/>
<polygon fill="#ed112c" stroke="#ed112c" points="480.889,-132.666 477.871,-122.123 477.662,-128.847 474.434,-125.028 474.434,-125.028 474.434,-125.028 477.662,-128.847 470.997,-127.933 480.889,-132.666 480.889,-132.666"/>
</g>
<!-- Post -->
<g id="node14" class="node"><title>Post</title>
<ellipse fill="none" stroke="black" cx="328" cy="-198" rx="27.5142" ry="18"/>
<text text-anchor="middle" x="328" y="-192.4" font-family="Times,serif" font-size="14.00">Post</text>
</g>
<!-- Event&#45;&gt;Post -->
<g id="edge30" class="edge"><title>Event&#45;&gt;Post</title>
<path fill="none" stroke="#907c02" d="M1095.37,-286.158C1000.56,-283.869 761.436,-276.003 563,-252 474.205,-241.259 450.307,-242.882 365,-216 362.864,-215.327 360.689,-214.56 358.519,-213.732"/>
<ellipse fill="none" stroke="#907c02" cx="1099.55" cy="-286.256" rx="4" ry="4"/>
<polygon fill="#907c02" stroke="#907c02" points="358.388,-213.678 350.895,-205.671 353.775,-211.751 349.161,-209.824 349.161,-209.824 349.161,-209.824 353.775,-211.751 347.426,-213.976 358.388,-213.678 358.388,-213.678"/>
</g>
<!-- Project -->
<g id="node16" class="node"><title>Project</title>
<ellipse fill="none" stroke="black" cx="1376" cy="-198" rx="38.0859" ry="18"/>
<text text-anchor="middle" x="1376" y="-192.4" font-family="Times,serif" font-size="14.00">Project</text>
</g>
<!-- Event&#45;&gt;Project -->
<g id="edge16" class="edge"><title>Event&#45;&gt;Project</title>
<path fill="none" stroke="#9cb646" d="M1180.51,-286.191C1220.05,-283.809 1278.92,-276.042 1324,-252 1336.92,-245.107 1348.62,-233.892 1357.63,-223.549"/>
<polygon fill="#9cb646" stroke="#9cb646" points="1180.38,-286.197 1170.16,-282.214 1175.39,-286.452 1170.39,-286.708 1170.39,-286.708 1170.39,-286.708 1175.39,-286.452 1170.62,-291.202 1180.38,-286.197 1180.38,-286.197"/>
<polygon fill="#9cb646" stroke="#9cb646" points="1357.88,-223.247 1367.72,-218.409 1361.07,-219.394 1364.25,-215.541 1364.25,-215.541 1364.25,-215.541 1361.07,-219.394 1360.79,-212.673 1357.88,-223.247 1357.88,-223.247"/>
</g>
<!-- Publicity -->
<g id="node18" class="node"><title>Publicity</title>
<ellipse fill="none" stroke="black" cx="1616" cy="-108" rx="45.3674" ry="18"/>
<text text-anchor="middle" x="1616" y="-102.4" font-family="Times,serif" font-size="14.00">Publicity</text>
</g>
<!-- Event&#45;&gt;Publicity -->
<g id="edge34" class="edge"><title>Event&#45;&gt;Publicity</title>
<path fill="none" stroke="#4822fc" d="M1177.6,-282.944C1220.88,-278.018 1291.13,-268.28 1350,-252 1391.92,-240.408 1404.32,-239.381 1441,-216 1460.62,-203.494 1460.04,-193.484 1479,-180 1509.89,-158.028 1548.49,-138.653 1576.84,-125.718"/>
<ellipse fill="none" stroke="#4822fc" cx="1173.56" cy="-283.395" rx="4.00001" ry="4.00001"/>
<polygon fill="#4822fc" stroke="#4822fc" points="1576.91,-125.684 1587.88,-125.687 1581.47,-123.634 1586.03,-121.583 1586.03,-121.583 1586.03,-121.583 1581.47,-123.634 1584.19,-117.479 1576.91,-125.684 1576.91,-125.684"/>
</g>
<!-- Registration -->
<g id="node19" class="node"><title>Registration</title>
<ellipse fill="none" stroke="black" cx="710" cy="-198" rx="58.3626" ry="18"/>
<text text-anchor="middle" x="710" y="-192.4" font-family="Times,serif" font-size="14.00">Registration</text>
</g>
<!-- Event&#45;&gt;Registration -->
<g id="edge36" class="edge"><title>Event&#45;&gt;Registration</title>
<path fill="none" stroke="#d7e097" d="M1097.44,-279.997C1030.99,-268.054 892.838,-242.46 777,-216 772.346,-214.937 767.52,-213.794 762.689,-212.621"/>
<ellipse fill="none" stroke="#d7e097" cx="1101.63" cy="-280.747" rx="4.00001" ry="4.00001"/>
<polygon fill="#d7e097" stroke="#d7e097" points="762.527,-212.581 753.894,-205.819 757.672,-211.385 752.817,-210.188 752.817,-210.188 752.817,-210.188 757.672,-211.385 751.74,-214.558 762.527,-212.581 762.527,-212.581"/>
</g>
<!-- Resource -->
<g id="node21" class="node"><title>Resource</title>
<ellipse fill="none" stroke="black" cx="833" cy="-198" rx="46.4511" ry="18"/>
<text text-anchor="middle" x="833" y="-192.4" font-family="Times,serif" font-size="14.00">Resource</text>
</g>
<!-- Event&#45;&gt;Resource -->
<g id="edge32" class="edge"><title>Event&#45;&gt;Resource</title>
<path fill="none" stroke="#f730cc" d="M1100.22,-276.668C1051.75,-263.006 963.871,-238.08 889,-216 885.428,-214.946 881.73,-213.846 878.017,-212.734"/>
<ellipse fill="none" stroke="#f730cc" cx="1104.09" cy="-277.757" rx="4.00001" ry="4.00001"/>
<polygon fill="#f730cc" stroke="#f730cc" points="877.8,-212.669 869.521,-205.477 873.012,-211.228 868.224,-209.786 868.224,-209.786 868.224,-209.786 873.012,-211.228 866.927,-214.095 877.8,-212.669 877.8,-212.669"/>
</g>
<!-- Sound -->
<g id="node23" class="node"><title>Sound</title>
<ellipse fill="none" stroke="black" cx="1246" cy="-198" rx="35.5808" ry="18"/>
<text text-anchor="middle" x="1246" y="-192.4" font-family="Times,serif" font-size="14.00">Sound</text>
</g>
<!-- Event&#45;&gt;Sound -->
<g id="edge28" class="edge"><title>Event&#45;&gt;Sound</title>
<path fill="none" stroke="#b81089" d="M1161.25,-267.424C1178.6,-253.415 1201.94,-234.57 1219.74,-220.205"/>
<ellipse fill="none" stroke="#b81089" cx="1158.11" cy="-269.956" rx="4.00002" ry="4.00002"/>
<polygon fill="#b81089" stroke="#b81089" points="1220.19,-219.835 1230.8,-217.054 1224.08,-216.694 1227.97,-213.553 1227.97,-213.553 1227.97,-213.553 1224.08,-216.694 1225.15,-210.052 1220.19,-219.835 1220.19,-219.835"/>
</g>
<!-- Video -->
<g id="node25" class="node"><title>Video</title>
<ellipse fill="none" stroke="black" cx="600" cy="-198" rx="34.0921" ry="18"/>
<text text-anchor="middle" x="600" y="-192.4" font-family="Times,serif" font-size="14.00">Video</text>
</g>
<!-- Event&#45;&gt;Video -->
<g id="edge26" class="edge"><title>Event&#45;&gt;Video</title>
<path fill="none" stroke="#c822e3" d="M1095.89,-284.625C1010.25,-278.912 807.068,-261.356 643,-216 640.406,-215.283 637.753,-214.462 635.102,-213.577"/>
<ellipse fill="none" stroke="#c822e3" cx="1100.05" cy="-284.896" rx="4" ry="4"/>
<polygon fill="#c822e3" stroke="#c822e3" points="635.025,-213.549 627.142,-205.926 630.321,-211.854 625.617,-210.16 625.617,-210.16 625.617,-210.16 630.321,-211.854 624.092,-214.394 635.025,-213.549 635.025,-213.549"/>
</g>
<!-- Event&#45;&gt;Visit -->
<g id="edge22" class="edge"><title>Event&#45;&gt;Visit</title>
<path fill="none" stroke="#9b5501" d="M1180.4,-283.959C1243.49,-279.43 1363.63,-269.51 1465,-252 1498.35,-246.239 1505.68,-239.939 1539,-234 1608.15,-221.676 1628.26,-234.558 1696,-216 1700.08,-214.883 1704.28,-213.389 1708.43,-211.748"/>
<polygon fill="#9b5501" stroke="#9b5501" points="1180.01,-283.986 1169.72,-280.202 1175.03,-284.339 1170.04,-284.691 1170.04,-284.691 1170.04,-284.691 1175.03,-284.339 1170.36,-289.18 1180.01,-283.986 1180.01,-283.986"/>
<polygon fill="#9b5501" stroke="#9b5501" points="1708.76,-211.612 1719.72,-211.915 1713.37,-209.687 1717.99,-207.762 1717.99,-207.762 1717.99,-207.762 1713.37,-209.687 1716.26,-203.609 1708.76,-211.612 1708.76,-211.612"/>
</g>
<!-- Event::Translation -->
<g id="node38" class="node"><title>Event::Translation</title>
<ellipse fill="none" stroke="black" cx="981" cy="-198" rx="82.3584" ry="18"/>
<text text-anchor="middle" x="981" y="-192.4" font-family="Times,serif" font-size="14.00">Event::Translation</text>
</g>
<!-- Event&#45;&gt;Event::Translation -->
<g id="edge14" class="edge"><title>Event&#45;&gt;Event::Translation</title>
<path fill="none" stroke="#af5f09" d="M1105.54,-271.538C1093.8,-265.612 1080.42,-258.67 1068.46,-252 1050.66,-242.082 1031.25,-230.406 1015.24,-220.542"/>
<ellipse fill="none" stroke="#af5f09" cx="1109.41" cy="-273.479" rx="4.00002" ry="4.00002"/>
<polygon fill="#af5f09" stroke="#af5f09" points="1015.23,-220.536 1009.1,-211.445 1010.98,-217.903 1006.73,-215.27 1006.73,-215.27 1006.73,-215.27 1010.98,-217.903 1004.36,-219.096 1015.23,-220.536 1015.23,-220.536"/>
<text text-anchor="middle" x="1101.27" y="-237.4" font-family="Times,serif" font-size="14.00">translations</text>
</g>
<!-- EventsProject -->
<g id="node41" class="node"><title>EventsProject</title>
<ellipse fill="none" stroke="black" cx="1295" cy="-108" rx="64.5092" ry="18"/>
<text text-anchor="middle" x="1295" y="-102.4" font-family="Times,serif" font-size="14.00">EventsProject</text>
</g>
<!-- Event&#45;&gt;EventsProject -->
<g id="edge18" class="edge"><title>Event&#45;&gt;EventsProject</title>
<path fill="none" stroke="#2052d4" d="M1176.69,-280.425C1212.86,-272.141 1264.42,-254.079 1290,-216 1305.74,-192.573 1304.57,-159.32 1301.02,-136.123"/>
<ellipse fill="none" stroke="#2052d4" cx="1172.67" cy="-281.295" rx="4.00001" ry="4.00001"/>
<polygon fill="#2052d4" stroke="#2052d4" points="1301.01,-136.09 1303.7,-125.459 1300.14,-131.167 1299.27,-126.244 1299.27,-126.244 1299.27,-126.244 1300.14,-131.167 1294.83,-127.029 1301.01,-136.09 1301.01,-136.09"/>
</g>
<!-- EventsVisit::Translation -->
<g id="node52" class="node"><title>EventsVisit::Translation</title>
<ellipse fill="none" stroke="black" cx="921" cy="-108" rx="104.304" ry="18"/>
<text text-anchor="middle" x="921" y="-102.4" font-family="Times,serif" font-size="14.00">EventsVisit::Translation</text>
</g>
<!-- EventsVisit&#45;&gt;EventsVisit::Translation -->
<g id="edge38" class="edge"><title>EventsVisit&#45;&gt;EventsVisit::Translation</title>
<path fill="none" stroke="#fb5cfe" d="M1096.16,-180.362C1060.05,-165.65 1007.33,-144.17 969.165,-128.623"/>
<ellipse fill="none" stroke="#fb5cfe" cx="1100.02" cy="-181.934" rx="4.00001" ry="4.00001"/>
<polygon fill="#fb5cfe" stroke="#fb5cfe" points="969.057,-128.579 961.494,-120.638 964.426,-126.692 959.796,-124.806 959.796,-124.806 959.796,-124.806 964.426,-126.692 958.098,-128.973 969.057,-128.579 969.057,-128.579"/>
<text text-anchor="middle" x="1081.27" y="-147.4" font-family="Times,serif" font-size="14.00">translations</text>
</g>
<!-- Funder -->
<g id="node9" class="node"><title>Funder</title>
<ellipse fill="none" stroke="black" cx="1904" cy="-288" rx="38.0929" ry="18"/>
<text text-anchor="middle" x="1904" y="-282.4" font-family="Times,serif" font-size="14.00">Funder</text>
</g>
<!-- Funder&#45;&gt;Visit -->
<g id="edge42" class="edge"><title>Funder&#45;&gt;Visit</title>
<path fill="none" stroke="#e69e42" d="M1870.91,-268.913C1842.16,-253.2 1800.88,-230.638 1773.06,-215.432"/>
<polygon fill="#e69e42" stroke="#e69e42" points="1871.12,-269.029 1877.74,-277.774 1875.51,-271.427 1879.9,-273.826 1879.9,-273.826 1879.9,-273.826 1875.51,-271.427 1882.05,-269.877 1871.12,-269.029 1871.12,-269.029"/>
<polygon fill="#e69e42" stroke="#e69e42" points="1772.96,-215.373 1766.34,-206.629 1768.57,-212.975 1764.18,-210.577 1764.18,-210.577 1764.18,-210.577 1768.57,-212.975 1762.02,-214.526 1772.96,-215.373 1772.96,-215.373"/>
</g>
<!-- Funder::Translation -->
<g id="node54" class="node"><title>Funder::Translation</title>
<ellipse fill="none" stroke="black" cx="1888" cy="-198" rx="87.1087" ry="18"/>
<text text-anchor="middle" x="1888" y="-192.4" font-family="Times,serif" font-size="14.00">Funder::Translation</text>
</g>
<!-- Funder&#45;&gt;Funder::Translation -->
<g id="edge40" class="edge"><title>Funder&#45;&gt;Funder::Translation</title>
<path fill="none" stroke="#6222f6" d="M1899.43,-261.888C1897.4,-250.697 1895,-237.494 1892.92,-226.083"/>
<ellipse fill="none" stroke="#6222f6" cx="1900.2" cy="-266.097" rx="4.00001" ry="4.00001"/>
<polygon fill="#6222f6" stroke="#6222f6" points="1892.92,-226.054 1895.56,-215.41 1892.02,-221.135 1891.13,-216.215 1891.13,-216.215 1891.13,-216.215 1892.02,-221.135 1886.7,-217.02 1892.92,-226.054 1892.92,-226.054"/>
<text text-anchor="middle" x="1930.27" y="-237.4" font-family="Times,serif" font-size="14.00">translations</text>
</g>
<!-- Image::Translation -->
<g id="node57" class="node"><title>Image::Translation</title>
<ellipse fill="none" stroke="black" cx="461" cy="-18" rx="84.2636" ry="18"/>
<text text-anchor="middle" x="461" y="-12.4" font-family="Times,serif" font-size="14.00">Image::Translation</text>
</g>
<!-- Image&#45;&gt;Image::Translation -->
<g id="edge44" class="edge"><title>Image&#45;&gt;Image::Translation</title>
<path fill="none" stroke="#e629c0" d="M461,-81.4625C461,-70.3968 461,-57.4281 461,-46.184"/>
<ellipse fill="none" stroke="#e629c0" cx="461" cy="-85.614" rx="4" ry="4"/>
<polygon fill="#e629c0" stroke="#e629c0" points="461,-46.0504 465.5,-36.0504 461,-41.0504 461,-36.0504 461,-36.0504 461,-36.0504 461,-41.0504 456.5,-36.0505 461,-46.0504 461,-46.0504"/>
<text text-anchor="middle" x="493.272" y="-57.4" font-family="Times,serif" font-size="14.00">translations</text>
</g>
<!-- Location -->
<g id="node12" class="node"><title>Location</title>
<ellipse fill="none" stroke="black" cx="1720" cy="-403" rx="45.0398" ry="18"/>
<text text-anchor="middle" x="1720" y="-397.4" font-family="Times,serif" font-size="14.00">Location</text>
</g>
<!-- Location&#45;&gt;Event -->
<g id="edge48" class="edge"><title>Location&#45;&gt;Event</title>
<path fill="none" stroke="#b38e3d" d="M1672.37,-392.769C1560.5,-371.085 1282.51,-317.203 1177.78,-296.904"/>
<ellipse fill="none" stroke="#b38e3d" cx="1676.46" cy="-393.561" rx="4.00001" ry="4.00001"/>
<polygon fill="#b38e3d" stroke="#b38e3d" points="1177.73,-296.894 1168.76,-290.573 1172.82,-295.942 1167.91,-294.991 1167.91,-294.991 1167.91,-294.991 1172.82,-295.942 1167.05,-299.409 1177.73,-296.894 1177.73,-296.894"/>
</g>
<!-- Location::Translation -->
<g id="node59" class="node"><title>Location::Translation</title>
<ellipse fill="none" stroke="black" cx="1753" cy="-288" rx="94.0556" ry="18"/>
<text text-anchor="middle" x="1753" y="-282.4" font-family="Times,serif" font-size="14.00">Location::Translation</text>
</g>
<!-- Location&#45;&gt;Location::Translation -->
<g id="edge46" class="edge"><title>Location&#45;&gt;Location::Translation</title>
<path fill="none" stroke="#a896b5" d="M1727.27,-377.096C1732.56,-358.992 1739.71,-334.509 1745.13,-315.948"/>
<ellipse fill="none" stroke="#a896b5" cx="1726.13" cy="-380.998" rx="4.00001" ry="4.00001"/>
<polygon fill="#a896b5" stroke="#a896b5" points="1745.14,-315.923 1752.26,-307.585 1746.54,-311.123 1747.94,-306.324 1747.94,-306.324 1747.94,-306.324 1746.54,-311.123 1743.62,-305.062 1745.14,-315.923 1745.14,-315.923"/>
<text text-anchor="middle" x="1775.27" y="-327.4" font-family="Times,serif" font-size="14.00">translations</text>
</g>
<!-- Page -->
<g id="node13" class="node"><title>Page</title>
<ellipse fill="none" stroke="black" cx="2429" cy="-403" rx="29.216" ry="18"/>
<text text-anchor="middle" x="2429" y="-397.4" font-family="Times,serif" font-size="14.00">Page</text>
</g>
<!-- Page::Translation -->
<g id="node62" class="node"><title>Page::Translation</title>
<ellipse fill="none" stroke="black" cx="2429" cy="-288" rx="78.2299" ry="18"/>
<text text-anchor="middle" x="2429" y="-282.4" font-family="Times,serif" font-size="14.00">Page::Translation</text>
</g>
<!-- Page&#45;&gt;Page::Translation -->
<g id="edge50" class="edge"><title>Page&#45;&gt;Page::Translation</title>
<path fill="none" stroke="#5ddfd8" d="M2429,-376.812C2429,-358.889 2429,-334.823 2429,-316.417"/>
<ellipse fill="none" stroke="#5ddfd8" cx="2429" cy="-380.838" rx="4" ry="4"/>
<polygon fill="#5ddfd8" stroke="#5ddfd8" points="2429,-316.324 2433.5,-306.324 2429,-311.324 2429,-306.324 2429,-306.324 2429,-306.324 2429,-311.324 2424.5,-306.324 2429,-316.324 2429,-316.324"/>
<text text-anchor="middle" x="2461.27" y="-327.4" font-family="Times,serif" font-size="14.00">translations</text>
</g>
<!-- Post&#45;&gt;Image -->
<g id="edge54" class="edge"><title>Post&#45;&gt;Image</title>
<path fill="none" stroke="#2029b4" d="M359.179,-182.662C371.018,-176.78 384.43,-169.575 396,-162 410.253,-152.668 425.055,-140.796 436.927,-130.654"/>
<polygon fill="#2029b4" stroke="#2029b4" points="359.082,-182.709 348.12,-183.029 354.584,-184.893 350.086,-187.077 350.086,-187.077 350.086,-187.077 354.584,-184.893 352.052,-191.125 359.082,-182.709 359.082,-182.709"/>
<polygon fill="#2029b4" stroke="#2029b4" points="437.084,-130.518 447.585,-127.36 440.859,-127.24 444.635,-123.962 444.635,-123.962 444.635,-123.962 440.859,-127.24 441.685,-120.564 437.084,-130.518 437.084,-130.518"/>
</g>
<!-- Post::Translation -->
<g id="node64" class="node"><title>Post::Translation</title>
<ellipse fill="none" stroke="black" cx="328" cy="-108" rx="76.5312" ry="18"/>
<text text-anchor="middle" x="328" y="-102.4" font-family="Times,serif" font-size="14.00">Post::Translation</text>
</g>
<!-- Post&#45;&gt;Post::Translation -->
<g id="edge52" class="edge"><title>Post&#45;&gt;Post::Translation</title>
<path fill="none" stroke="#0474c8" d="M328,-171.462C328,-160.397 328,-147.428 328,-136.184"/>
<ellipse fill="none" stroke="#0474c8" cx="328" cy="-175.614" rx="4" ry="4"/>
<polygon fill="#0474c8" stroke="#0474c8" points="328,-136.05 332.5,-126.05 328,-131.05 328,-126.05 328,-126.05 328,-126.05 328,-131.05 323.5,-126.05 328,-136.05 328,-136.05"/>
<text text-anchor="middle" x="360.272" y="-147.4" font-family="Times,serif" font-size="14.00">translations</text>
</g>
<!-- Postcategory -->
<g id="node15" class="node"><title>Postcategory</title>
<ellipse fill="none" stroke="black" cx="196" cy="-288" rx="60.3803" ry="18"/>
<text text-anchor="middle" x="196" y="-282.4" font-family="Times,serif" font-size="14.00">Postcategory</text>
</g>
<!-- Postcategory&#45;&gt;Post -->
<g id="edge58" class="edge"><title>Postcategory&#45;&gt;Post</title>
<path fill="none" stroke="#7da808" d="M229.892,-267.622C238.197,-262.675 246.996,-257.264 255,-252 271.255,-241.311 288.923,-228.516 302.805,-218.176"/>
<ellipse fill="none" stroke="#7da808" cx="226.199" cy="-269.801" rx="4.00002" ry="4.00002"/>
<polygon fill="#7da808" stroke="#7da808" points="302.913,-218.096 313.613,-215.696 306.913,-215.096 310.913,-212.096 310.913,-212.096 310.913,-212.096 306.913,-215.096 308.214,-208.496 302.913,-218.096 302.913,-218.096"/>
</g>
<!-- Postcategory::Translation -->
<g id="node67" class="node"><title>Postcategory::Translation</title>
<ellipse fill="none" stroke="black" cx="172" cy="-198" rx="109.396" ry="18"/>
<text text-anchor="middle" x="172" y="-192.4" font-family="Times,serif" font-size="14.00">Postcategory::Translation</text>
</g>
<!-- Postcategory&#45;&gt;Postcategory::Translation -->
<g id="edge56" class="edge"><title>Postcategory&#45;&gt;Postcategory::Translation</title>
<path fill="none" stroke="#55a7da" d="M189.263,-262.296C186.196,-251.051 182.557,-237.709 179.413,-226.181"/>
<ellipse fill="none" stroke="#55a7da" cx="190.32" cy="-266.174" rx="4.00001" ry="4.00001"/>
<polygon fill="#55a7da" stroke="#55a7da" points="179.326,-225.863 181.037,-215.031 178.011,-221.039 176.695,-216.215 176.695,-216.215 176.695,-216.215 178.011,-221.039 172.354,-217.4 179.326,-225.863 179.326,-225.863"/>
<text text-anchor="middle" x="219.272" y="-237.4" font-family="Times,serif" font-size="14.00">translations</text>
</g>
<!-- Project&#45;&gt;Project -->
<g id="edge64" class="edge"><title>Project&#45;&gt;Project</title>
<path fill="none" stroke="#5a1d0c" d="M1418.18,-205.864C1426.27,-204.931 1432,-202.31 1432,-198 1432,-194.13 1427.38,-191.622 1420.58,-190.475"/>
<ellipse fill="none" stroke="#5a1d0c" cx="1414.17" cy="-206.055" rx="4" ry="4"/>
<polygon fill="#5a1d0c" stroke="#5a1d0c" points="1420.15,-190.445 1410.49,-185.265 1415.16,-190.1 1410.18,-189.755 1410.18,-189.755 1410.18,-189.755 1415.16,-190.1 1409.87,-194.244 1420.15,-190.445 1420.15,-190.445"/>
</g>
<!-- Project&#45;&gt;Publicity -->
<g id="edge66" class="edge"><title>Project&#45;&gt;Publicity</title>
<path fill="none" stroke="#8085ab" d="M1413.89,-183.549C1429.4,-177.582 1447.36,-170.082 1463,-162 1476.14,-155.209 1477.44,-149.918 1491,-144 1520.44,-131.151 1530.09,-134.746 1561,-126 1564.58,-124.988 1568.27,-123.912 1571.98,-122.81"/>
<ellipse fill="none" stroke="#8085ab" cx="1409.76" cy="-185.11" rx="4.00001" ry="4.00001"/>
<polygon fill="#8085ab" stroke="#8085ab" points="1572.17,-122.753 1583.05,-124.174 1576.96,-121.309 1581.75,-119.866 1581.75,-119.866 1581.75,-119.866 1576.96,-121.309 1580.45,-115.557 1572.17,-122.753 1572.17,-122.753"/>
</g>
<!-- Project&#45;&gt;EventsProject -->
<g id="edge62" class="edge"><title>Project&#45;&gt;EventsProject</title>
<path fill="none" stroke="#9a47c2" d="M1355.76,-175.013C1344.06,-162.295 1329.31,-146.272 1317.27,-133.197"/>
<ellipse fill="none" stroke="#9a47c2" cx="1358.81" cy="-178.324" rx="4.00002" ry="4.00002"/>
<polygon fill="#9a47c2" stroke="#9a47c2" points="1316.95,-132.85 1313.49,-122.445 1313.57,-129.171 1310.18,-125.492 1310.18,-125.492 1310.18,-125.492 1313.57,-129.171 1306.87,-128.54 1316.95,-132.85 1316.95,-132.85"/>
</g>
<!-- Project::Translation -->
<g id="node70" class="node"><title>Project::Translation</title>
<ellipse fill="none" stroke="black" cx="1465" cy="-108" rx="87.1016" ry="18"/>
<text text-anchor="middle" x="1465" y="-102.4" font-family="Times,serif" font-size="14.00">Project::Translation</text>
</g>
<!-- Project&#45;&gt;Project::Translation -->
<g id="edge60" class="edge"><title>Project&#45;&gt;Project::Translation</title>
<path fill="none" stroke="#4647b2" d="M1382.53,-172.254C1386.03,-162.58 1391.16,-151.929 1398.46,-144 1403.56,-138.452 1409.75,-133.626 1416.27,-129.478"/>
<ellipse fill="none" stroke="#4647b2" cx="1381.21" cy="-176.268" rx="4.00001" ry="4.00001"/>
<polygon fill="#4647b2" stroke="#4647b2" points="1416.65,-129.257 1427.56,-128.132 1420.98,-126.748 1425.3,-124.239 1425.3,-124.239 1425.3,-124.239 1420.98,-126.748 1423.04,-120.347 1416.65,-129.257 1416.65,-129.257"/>
<text text-anchor="middle" x="1431.27" y="-147.4" font-family="Times,serif" font-size="14.00">translations</text>
</g>
<!-- Projecttype -->
<g id="node17" class="node"><title>Projecttype</title>
<ellipse fill="none" stroke="black" cx="1530" cy="-288" rx="55.0242" ry="18"/>
<text text-anchor="middle" x="1530" y="-282.4" font-family="Times,serif" font-size="14.00">Projecttype</text>
</g>
<!-- Projecttype&#45;&gt;Project -->
<g id="edge70" class="edge"><title>Projecttype&#45;&gt;Project</title>
<path fill="none" stroke="#56b2b5" d="M1496.73,-267.99C1470.58,-253.046 1434.36,-232.35 1408.43,-217.531"/>
<ellipse fill="none" stroke="#56b2b5" cx="1500.4" cy="-270.087" rx="4.00002" ry="4.00002"/>
<polygon fill="#56b2b5" stroke="#56b2b5" points="1408.4,-217.516 1401.95,-208.647 1404.06,-215.035 1399.72,-212.554 1399.72,-212.554 1399.72,-212.554 1404.06,-215.035 1397.49,-216.461 1408.4,-217.516 1408.4,-217.516"/>
</g>
<!-- Projecttype::Translation -->
<g id="node75" class="node"><title>Projecttype::Translation</title>
<ellipse fill="none" stroke="black" cx="1592" cy="-198" rx="104.041" ry="18"/>
<text text-anchor="middle" x="1592" y="-192.4" font-family="Times,serif" font-size="14.00">Projecttype::Translation</text>
</g>
<!-- Projecttype&#45;&gt;Projecttype::Translation -->
<g id="edge68" class="edge"><title>Projecttype&#45;&gt;Projecttype::Translation</title>
<path fill="none" stroke="#72fa8f" d="M1543.77,-262.798C1549.28,-253.583 1555.88,-243.112 1562.46,-234 1564.85,-230.686 1567.47,-227.291 1570.14,-223.982"/>
<ellipse fill="none" stroke="#72fa8f" cx="1541.63" cy="-266.424" rx="4.00002" ry="4.00002"/>
<polygon fill="#72fa8f" stroke="#72fa8f" points="1570.35,-223.723 1580.2,-218.901 1573.54,-219.875 1576.74,-216.028 1576.74,-216.028 1576.74,-216.028 1573.54,-219.875 1573.27,-213.154 1570.35,-223.723 1570.35,-223.723"/>
<text text-anchor="middle" x="1595.27" y="-237.4" font-family="Times,serif" font-size="14.00">translations</text>
</g>
<!-- Publicity::Translation -->
<g id="node78" class="node"><title>Publicity::Translation</title>
<ellipse fill="none" stroke="black" cx="1616" cy="-18" rx="94.3831" ry="18"/>
<text text-anchor="middle" x="1616" y="-12.4" font-family="Times,serif" font-size="14.00">Publicity::Translation</text>
</g>
<!-- Publicity&#45;&gt;Publicity::Translation -->
<g id="edge72" class="edge"><title>Publicity&#45;&gt;Publicity::Translation</title>
<path fill="none" stroke="#be6c76" d="M1616,-81.4625C1616,-70.3968 1616,-57.4281 1616,-46.184"/>
<ellipse fill="none" stroke="#be6c76" cx="1616" cy="-85.614" rx="4" ry="4"/>
<polygon fill="#be6c76" stroke="#be6c76" points="1616,-46.0504 1620.5,-36.0504 1616,-41.0504 1616,-36.0504 1616,-36.0504 1616,-36.0504 1616,-41.0504 1611.5,-36.0505 1616,-46.0504 1616,-46.0504"/>
<text text-anchor="middle" x="1648.27" y="-57.4" font-family="Times,serif" font-size="14.00">translations</text>
</g>
<!-- Residencytype -->
<g id="node20" class="node"><title>Residencytype</title>
<ellipse fill="none" stroke="black" cx="2060" cy="-288" rx="67.3343" ry="18"/>
<text text-anchor="middle" x="2060" y="-282.4" font-family="Times,serif" font-size="14.00">Residencytype</text>
</g>
<!-- Residencytype&#45;&gt;Visit -->
<g id="edge76" class="edge"><title>Residencytype&#45;&gt;Visit</title>
<path fill="none" stroke="#8b546c" d="M2030.87,-266.431C2013,-254.894 1989.17,-241.376 1966,-234 1891.92,-210.413 1867.9,-232.854 1792,-216 1786.91,-214.87 1781.62,-213.382 1776.47,-211.755"/>
<ellipse fill="none" stroke="#8b546c" cx="2034.32" cy="-268.701" rx="4.00002" ry="4.00002"/>
<polygon fill="#8b546c" stroke="#8b546c" points="1776.33,-211.707 1768.29,-204.25 1771.59,-210.111 1766.86,-208.514 1766.86,-208.514 1766.86,-208.514 1771.59,-210.111 1765.42,-212.778 1776.33,-211.707 1776.33,-211.707"/>
</g>
<!-- Residencytype::Translation -->
<g id="node80" class="node"><title>Residencytype::Translation</title>
<ellipse fill="none" stroke="black" cx="2110" cy="-198" rx="116.35" ry="18"/>
<text text-anchor="middle" x="2110" y="-192.4" font-family="Times,serif" font-size="14.00">Residencytype::Translation</text>
</g>
<!-- Residencytype&#45;&gt;Residencytype::Translation -->
<g id="edge74" class="edge"><title>Residencytype&#45;&gt;Residencytype::Translation</title>
<path fill="none" stroke="#a4159e" d="M2073.8,-262.703C2080.42,-251.06 2088.35,-237.097 2095.11,-225.215"/>
<ellipse fill="none" stroke="#a4159e" cx="2071.62" cy="-266.555" rx="4.00002" ry="4.00002"/>
<polygon fill="#a4159e" stroke="#a4159e" points="2095.28,-224.91 2104.13,-218.439 2097.75,-220.563 2100.22,-216.215 2100.22,-216.215 2100.22,-216.215 2097.75,-220.563 2096.31,-213.992 2095.28,-224.91 2095.28,-224.91"/>
<text text-anchor="middle" x="2121.27" y="-237.4" font-family="Times,serif" font-size="14.00">translations</text>
</g>
<!-- Role -->
<g id="node22" class="node"><title>Role</title>
<ellipse fill="none" stroke="black" cx="328" cy="-403" rx="28.9157" ry="18"/>
<text text-anchor="middle" x="328" y="-397.4" font-family="Times,serif" font-size="14.00">Role</text>
</g>
<!-- User -->
<g id="node24" class="node"><title>User</title>
<ellipse fill="none" stroke="black" cx="328" cy="-288" rx="28.9087" ry="18"/>
<text text-anchor="middle" x="328" y="-282.4" font-family="Times,serif" font-size="14.00">User</text>
</g>
<!-- Role&#45;&gt;User -->
<g id="edge78" class="edge"><title>Role&#45;&gt;User</title>
<path fill="none" stroke="#abd7ad" d="M328,-374.795C328,-357.168 328,-334.283 328,-316.582"/>
<polygon fill="#abd7ad" stroke="#abd7ad" points="328,-374.838 323.5,-384.838 328,-379.838 328,-384.838 328,-384.838 328,-384.838 328,-379.838 332.5,-384.838 328,-374.838 328,-374.838"/>
<polygon fill="#abd7ad" stroke="#abd7ad" points="328,-316.324 332.5,-306.324 328,-311.324 328,-306.324 328,-306.324 328,-306.324 328,-311.324 323.5,-306.324 328,-316.324 328,-316.324"/>
</g>
<!-- Sound::Translation -->
<g id="node84" class="node"><title>Sound::Translation</title>
<ellipse fill="none" stroke="black" cx="1128" cy="-108" rx="84.5976" ry="18"/>
<text text-anchor="middle" x="1128" y="-102.4" font-family="Times,serif" font-size="14.00">Sound::Translation</text>
</g>
<!-- Sound&#45;&gt;Sound::Translation -->
<g id="edge80" class="edge"><title>Sound&#45;&gt;Sound::Translation</title>
<path fill="none" stroke="#859a2c" d="M1220.28,-177.819C1201.99,-164.182 1177.37,-145.82 1158.16,-131.493"/>
<ellipse fill="none" stroke="#859a2c" cx="1223.57" cy="-180.274" rx="4.00002" ry="4.00002"/>
<polygon fill="#859a2c" stroke="#859a2c" points="1158.04,-131.404 1152.72,-121.818 1154.03,-128.415 1150.03,-125.426 1150.03,-125.426 1150.03,-125.426 1154.03,-128.415 1147.33,-129.033 1158.04,-131.404 1158.04,-131.404"/>
<text text-anchor="middle" x="1230.27" y="-147.4" font-family="Times,serif" font-size="14.00">translations</text>
</g>
<!-- User&#45;&gt;Authentication -->
<g id="edge82" class="edge"><title>User&#45;&gt;Authentication</title>
<path fill="none" stroke="#5df70a" d="M352.366,-268.191C370.09,-254.51 394.161,-235.928 412.896,-221.466"/>
<ellipse fill="none" stroke="#5df70a" cx="348.979" cy="-270.806" rx="4.00002" ry="4.00002"/>
<polygon fill="#5df70a" stroke="#5df70a" points="412.909,-221.456 423.574,-218.908 416.867,-218.401 420.825,-215.346 420.825,-215.346 420.825,-215.346 416.867,-218.401 418.075,-211.784 412.909,-221.456 412.909,-221.456"/>
</g>
<!-- User&#45;&gt;Post -->
<g id="edge84" class="edge"><title>User&#45;&gt;Post</title>
<path fill="none" stroke="#8e15ed" d="M328,-261.462C328,-250.397 328,-237.428 328,-226.184"/>
<ellipse fill="none" stroke="#8e15ed" cx="328" cy="-265.614" rx="4" ry="4"/>
<polygon fill="#8e15ed" stroke="#8e15ed" points="328,-226.05 332.5,-216.05 328,-221.05 328,-216.05 328,-216.05 328,-216.05 328,-221.05 323.5,-216.05 328,-226.05 328,-226.05"/>
</g>
<!-- Video::Translation -->
<g id="node88" class="node"><title>Video::Translation</title>
<ellipse fill="none" stroke="black" cx="600" cy="-108" rx="83.1084" ry="18"/>
<text text-anchor="middle" x="600" y="-102.4" font-family="Times,serif" font-size="14.00">Video::Translation</text>
</g>
<!-- Video&#45;&gt;Video::Translation -->
<g id="edge86" class="edge"><title>Video&#45;&gt;Video::Translation</title>
<path fill="none" stroke="#acf898" d="M600,-171.462C600,-160.397 600,-147.428 600,-136.184"/>
<ellipse fill="none" stroke="#acf898" cx="600" cy="-175.614" rx="4" ry="4"/>
<polygon fill="#acf898" stroke="#acf898" points="600,-136.05 604.5,-126.05 600,-131.05 600,-126.05 600,-126.05 600,-126.05 600,-131.05 595.5,-126.05 600,-136.05 600,-136.05"/>
<text text-anchor="middle" x="632.272" y="-147.4" font-family="Times,serif" font-size="14.00">translations</text>
</g>
<!-- Videohost -->
<g id="node26" class="node"><title>Videohost</title>
<ellipse fill="none" stroke="black" cx="607" cy="-288" rx="50.2393" ry="18"/>
<text text-anchor="middle" x="607" y="-282.4" font-family="Times,serif" font-size="14.00">Videohost</text>
</g>
<!-- Videohost&#45;&gt;Video -->
<g id="edge88" class="edge"><title>Videohost&#45;&gt;Video</title>
<path fill="none" stroke="#20a213" d="M604.969,-261.462C604.088,-250.397 603.057,-237.428 602.162,-226.184"/>
<ellipse fill="none" stroke="#20a213" cx="605.3" cy="-265.627" rx="4" ry="4"/>
<polygon fill="#20a213" stroke="#20a213" points="602.149,-226.019 605.842,-215.694 601.753,-221.035 601.356,-216.05 601.356,-216.05 601.356,-216.05 601.753,-221.035 596.87,-216.407 602.149,-226.019 602.149,-226.019"/>
</g>
<!-- Visit&#45;&gt;Event -->
<g id="edge92" class="edge"><title>Visit&#45;&gt;Event</title>
<path fill="none" stroke="#de827c" d="M1717.08,-215.095C1716.05,-215.418 1715.02,-215.721 1714,-216 1646.26,-234.558 1626.15,-221.676 1557,-234 1523.68,-239.939 1516.35,-246.239 1483,-252 1375.16,-270.628 1246.08,-280.666 1180.13,-284.761"/>
<ellipse fill="none" stroke="#de827c" cx="1721.13" cy="-213.64" rx="4.00001" ry="4.00001"/>
<polygon fill="#de827c" stroke="#de827c" points="1180.08,-284.764 1169.83,-280.876 1175.09,-285.065 1170.1,-285.367 1170.1,-285.367 1170.1,-285.367 1175.09,-285.065 1170.37,-289.859 1180.08,-284.764 1180.08,-284.764"/>
</g>
<!-- Visit&#45;&gt;Image -->
<g id="edge94" class="edge"><title>Visit&#45;&gt;Image</title>
<path fill="none" stroke="#7d1033" d="M1713.26,-182.742C1710.5,-181.712 1707.72,-180.775 1705,-180 1589.84,-147.215 1557.39,-153.174 1438,-144 1334.95,-136.082 609.623,-144.829 508,-126 504.374,-125.328 500.656,-124.411 496.978,-123.348"/>
<ellipse fill="none" stroke="#7d1033" cx="1717.19" cy="-184.333" rx="4.00001" ry="4.00001"/>
<polygon fill="#7d1033" stroke="#7d1033" points="496.938,-123.335 488.803,-115.981 492.179,-121.799 487.421,-120.264 487.421,-120.264 487.421,-120.264 492.179,-121.799 486.039,-124.546 496.938,-123.335 496.938,-123.335"/>
</g>
<!-- Visit&#45;&gt;Publicity -->
<g id="edge96" class="edge"><title>Visit&#45;&gt;Publicity</title>
<path fill="none" stroke="#39b4a3" d="M1717.68,-179.458C1697.06,-165.164 1667.87,-144.945 1646.06,-129.83"/>
<ellipse fill="none" stroke="#39b4a3" cx="1720.97" cy="-181.737" rx="4.00002" ry="4.00002"/>
<polygon fill="#39b4a3" stroke="#39b4a3" points="1646.02,-129.801 1640.36,-120.407 1641.91,-126.954 1637.8,-124.106 1637.8,-124.106 1637.8,-124.106 1641.91,-126.954 1635.24,-127.805 1646.02,-129.801 1646.02,-129.801"/>
</g>
<!-- Visit::Translation -->
<g id="node91" class="node"><title>Visit::Translation</title>
<ellipse fill="none" stroke="black" cx="1758" cy="-108" rx="77.8809" ry="18"/>
<text text-anchor="middle" x="1758" y="-102.4" font-family="Times,serif" font-size="14.00">Visit::Translation</text>
</g>
<!-- Visit&#45;&gt;Visit::Translation -->
<g id="edge90" class="edge"><title>Visit&#45;&gt;Visit::Translation</title>
<path fill="none" stroke="#f074ce" d="M1747.28,-171.888C1749.19,-160.697 1751.44,-147.494 1753.38,-136.083"/>
<ellipse fill="none" stroke="#f074ce" cx="1746.56" cy="-176.09" rx="4.00001" ry="4.00001"/>
<polygon fill="#f074ce" stroke="#f074ce" points="1753.39,-136.073 1759.5,-126.972 1754.23,-131.144 1755.07,-126.215 1755.07,-126.215 1755.07,-126.215 1754.23,-131.144 1750.63,-125.459 1753.39,-136.073 1753.39,-136.073"/>
<text text-anchor="middle" x="1784.27" y="-147.4" font-family="Times,serif" font-size="14.00">translations</text>
</g>
<!-- WikiPage -->
<g id="node28" class="node"><title>WikiPage</title>
<ellipse fill="none" stroke="black" cx="2604" cy="-403" rx="48.6024" ry="18"/>
<text text-anchor="middle" x="2604" y="-397.4" font-family="Times,serif" font-size="14.00">WikiPage</text>
</g>
<!-- WikiPageVersion -->
<g id="node29" class="node"><title>WikiPageVersion</title>
<ellipse fill="none" stroke="black" cx="2604" cy="-288" rx="78.3589" ry="18"/>
<text text-anchor="middle" x="2604" y="-282.4" font-family="Times,serif" font-size="14.00">WikiPageVersion</text>
</g>
<!-- WikiPage&#45;&gt;WikiPageVersion -->
<g id="edge98" class="edge"><title>WikiPage&#45;&gt;WikiPageVersion</title>
<path fill="none" stroke="#1917d4" d="M2604,-376.812C2604,-358.889 2604,-334.823 2604,-316.417"/>
<ellipse fill="none" stroke="#1917d4" cx="2604" cy="-380.838" rx="4" ry="4"/>
<polygon fill="#1917d4" stroke="#1917d4" points="2604,-316.324 2608.5,-306.324 2604,-311.324 2604,-306.324 2604,-306.324 2604,-306.324 2604,-311.324 2599.5,-306.324 2604,-316.324 2604,-316.324"/>
<text text-anchor="middle" x="2627.33" y="-327.4" font-family="Times,serif" font-size="14.00">versions</text>
</g>
</g>
</svg>
